<svg width="24" height="24" viewBox="0 0 24 24" fill="none" xmlns="http://www.w3.org/2000/svg">
<path d="M19.4613 17.6726C14.478 17.6726 9.52411 17.6726 4.53856 17.6726C4.53856 17.9209 4.53856 18.1714 4.53856 18.4198C4.53856 18.9872 4.52498 19 3.92979 19C3.40928 19 2.88878 19 2.36827 19C2.10123 19 2.00392 18.9058 2.00392 18.6553C2.00392 17.5912 1.9926 16.525 2.00844 15.4609C2.02428 14.4568 2.21891 13.4826 2.80052 12.6262C3.0223 12.3008 3.09472 11.9882 3.09019 11.6135C3.08114 9.7102 3.08793 7.80899 3.09019 5.90778C3.09019 5.33614 3.45228 5 4.04973 5C9.35211 5 14.6522 5 19.9546 5.00214C20.5498 5.00214 20.9232 5.35326 20.9255 5.92705C20.9277 7.09604 20.9255 8.26502 20.9255 9.43401C20.9255 10.314 20.9255 11.1939 20.93 12.0739C20.93 12.1424 20.9504 12.2237 20.9934 12.2773C21.6813 13.1872 21.9642 14.2191 21.9869 15.3153C22.0117 16.4351 21.9936 17.5548 21.9936 18.6746C21.9936 18.9015 21.8918 18.9979 21.6474 18.9979C21.0431 19 20.4366 19 19.8324 18.9979C19.5608 18.9979 19.4635 18.9015 19.4635 18.6339C19.4613 18.3213 19.4613 18.0087 19.4613 17.6726ZM3.13771 15.1141C9.06923 15.1141 14.9759 15.1141 20.8915 15.1141C20.8644 14.9492 20.8417 14.8036 20.8146 14.6581C20.6924 13.9901 20.5023 13.3456 19.9886 12.8403C19.76 12.6134 19.5178 12.3993 19.2689 12.1916C18.7914 11.7913 18.2143 11.605 17.5897 11.5814C15.9784 11.5236 14.3648 11.4487 12.7535 11.453C10.6217 11.4594 8.48762 11.5236 6.3558 11.5857C5.58183 11.6093 4.90291 11.8812 4.36883 12.44C3.95016 12.881 3.64012 13.382 3.40702 13.9258C3.24634 14.3048 3.12866 14.6923 3.13771 15.1141ZM4.11989 11.6778C4.33941 11.5857 4.53629 11.4958 4.74223 11.4209C4.86444 11.3759 4.90065 11.3095 4.90291 11.1853C4.90518 10.6929 4.89839 10.2005 4.94138 9.7102C4.99796 9.05934 5.36005 8.71678 6.0435 8.60973C6.18381 8.58832 6.32865 8.57761 6.47122 8.57761C7.84943 8.57547 9.22991 8.57547 10.6081 8.57547C11.1354 8.57547 11.6333 8.65683 12.0022 9.05934C12.4208 8.72106 12.5566 8.65683 13.0251 8.59688C13.1609 8.57975 13.2967 8.57761 13.4347 8.57761C14.0073 8.57547 14.5798 8.57547 15.1524 8.57547C15.9852 8.57761 16.818 8.56691 17.6508 8.58617C18.4451 8.6033 18.9159 8.96085 19.0584 9.62028C19.0901 9.77015 19.106 9.9243 19.1105 10.0785C19.1173 10.4531 19.1105 10.8299 19.1173 11.2046C19.1173 11.2603 19.1535 11.3438 19.1987 11.3673C19.4477 11.4937 19.7034 11.6071 19.9727 11.7313C19.9727 11.6649 19.9727 11.605 19.9727 11.545C19.9727 9.85365 19.9727 8.16012 19.975 6.46873C19.975 6.12188 19.9026 6.05123 19.5292 6.05123C17.8251 6.05123 16.121 6.05123 14.4169 6.05123C11.1083 6.04909 7.81096 6.04909 4.51366 6.04909C4.19004 6.04909 4.10857 6.12402 4.10857 6.43019C4.10631 8.12158 4.10631 9.81511 4.10631 11.5065C4.10631 11.56 4.1131 11.6114 4.11989 11.6778ZM3.67859 18.1479C3.67859 17.7925 3.67633 17.4499 3.67859 17.1074C3.68085 16.8526 3.77138 16.7627 4.04294 16.7627C6.17702 16.7627 8.30884 16.7627 10.4429 16.7627C12.7852 16.7627 15.1252 16.7627 17.4675 16.7627C18.2867 16.7627 19.106 16.7627 19.9252 16.7648C20.2081 16.7648 20.2941 16.8526 20.2986 17.1223C20.3009 17.3 20.2963 17.4799 20.2963 17.6576C20.2963 17.8203 20.2963 17.983 20.2963 18.1436C20.543 18.1436 20.7535 18.1436 20.9707 18.1436C20.9707 17.4114 20.9707 16.6963 20.9707 15.9769C14.9962 15.9769 9.03755 15.9769 3.06756 15.9769C3.06756 16.707 3.06756 17.4221 3.06756 18.1457C3.27124 18.1479 3.46133 18.1479 3.67859 18.1479ZM18.3591 10.7914C18.3343 10.451 18.3275 10.162 18.2913 9.8772C18.2573 9.60957 18.0627 9.47255 17.7911 9.43615C17.6123 9.4126 17.429 9.39975 17.248 9.39975C16.0531 9.39761 14.8559 9.39547 13.661 9.39975C13.446 9.39975 13.2333 9.4126 13.0206 9.43401C12.7852 9.45756 12.5793 9.55605 12.5249 9.78728C12.4684 10.0228 12.4616 10.2669 12.4276 10.5345C12.5453 10.5345 12.6155 10.5345 12.6856 10.5345C13.8805 10.5345 15.0777 10.5323 16.2726 10.5323C16.9583 10.5345 17.6508 10.4917 18.3591 10.7914ZM11.5405 10.5045C11.5247 10.2926 11.5201 10.1148 11.493 9.93929C11.4477 9.64169 11.3051 9.49824 10.9996 9.44472C10.8344 9.41688 10.6647 9.4019 10.495 9.4019C9.1937 9.39975 7.89243 9.39975 6.59116 9.4019C6.4418 9.4019 6.29244 9.41474 6.14534 9.43829C5.88509 9.47897 5.74251 9.59673 5.71083 9.84508C5.67236 10.1363 5.67236 10.4317 5.65652 10.7464C5.75383 10.7186 5.81719 10.7058 5.87603 10.6844C6.24492 10.5538 6.62511 10.4959 7.02115 10.4981C8.37447 10.5067 9.72778 10.5024 11.0811 10.5024C11.2214 10.5045 11.364 10.5045 11.5405 10.5045Z" fill="#0C314E"/>
</svg>
