<svg width="24" height="24" viewBox="0 0 24 24" fill="none" xmlns="http://www.w3.org/2000/svg">
<path d="M8 10.8571V8.80812L15.1919 16H13.1429V17.1429H17.1429V13.1429H16V15.1919L8.80812 8L10.8571 8L10.8571 6.85714L6.85714 6.85714L6.85714 10.8571L8 10.8571Z" fill="#0C314E"/>
<path fill-rule="evenodd" clip-rule="evenodd" d="M4 5.14286C4 4.51168 4.51167 4 5.14286 4H18.8571C19.4883 4 20 4.51167 20 5.14286V18.8571C20 19.4883 19.4883 20 18.8571 20H5.14286C4.51168 20 4 19.4883 4 18.8571V5.14286ZM5.14286 5.14286H18.8571V18.8571H5.14286V5.14286Z" fill="#0C314E"/>
</svg>
