<svg width="24" height="24" viewBox="0 0 24 24" fill="none" xmlns="http://www.w3.org/2000/svg">
<path fill-rule="evenodd" clip-rule="evenodd" d="M5.00006 6.99991C5.0003 6.99662 5.00162 6.97911 5.00859 6.94746C5.01658 6.91122 5.03026 6.86439 5.05174 6.8107C5.09482 6.70299 5.16521 6.57775 5.27165 6.45948C5.47324 6.23549 5.83629 6 6.5 6C7.13704 6 7.48693 6.25423 7.69423 6.54215C7.91989 6.85557 8 7.24668 8 7.5C8 7.77614 8.22386 8 8.5 8C8.77614 8 9 7.77614 9 7.5C9 7.08666 8.88011 6.47777 8.50577 5.95785C8.11307 5.41243 7.46296 5 6.5 5C5.56371 5 4.92676 5.34784 4.52835 5.79052C4.15258 6.20804 4 6.69993 4 7V8.99991H2.5C1.67157 8.99991 1 9.67148 1 10.4999C1 11.3283 1.67157 11.9999 2.5 11.9999H3V13.0001C3 15.419 3.71776 16.4368 6 16.9001V17.5002C6 17.7763 6.22386 18.0002 6.5 18.0002C6.77614 18.0002 7 17.7763 7 17.5002L7 17.0001H16V17.5002C16 17.7763 16.2239 18.0002 16.5 18.0002C16.7761 18.0002 17 17.7763 17 17.5002V16.9292C20.0657 16.4907 20.4906 15.0658 20.9291 12.0001L21.5 11.9999C22.3284 11.9999 23 11.3283 23 10.4999C23 9.67148 22.3284 8.99991 21.5 8.99991H5L5.00006 6.99991ZM4.49054 9.99991C4.49368 9.99997 4.49684 10 4.5 10C4.50316 10 4.50632 9.99997 4.50946 9.99991H21.5C21.7761 9.99991 22 10.2238 22 10.4999C22 10.7761 21.7761 10.9999 21.5 10.9999H2.5C2.22386 10.9999 2 10.7761 2 10.4999C2 10.2238 2.22386 9.99991 2.5 9.99991H4.49054ZM19.917 12.0001H4V13.0001C4 15.2092 4.79086 16.0001 7 16.0001H16C18.973 16.0001 19.441 14.8378 19.917 12.0001Z" fill="#0C314E"/>
</svg>
