<svg width="17" height="17" viewBox="0 0 17 17" fill="none" xmlns="http://www.w3.org/2000/svg">
<g clip-path="url(#clip0_0_140)">
<path d="M0 17.0015C0.23549 16.3061 0.46215 15.6359 0.689344 14.9655C0.949186 14.1984 1.2109 13.432 1.46593 12.6636C1.48466 12.6067 1.47636 12.5228 1.44639 12.4709C0.566247 10.9574 0.198026 9.32879 0.335038 7.58859C0.623514 3.92563 3.41488 0.839288 7.05588 0.152134C11.5315 -0.692591 15.8017 2.09508 16.802 6.51481C17.7982 10.9162 14.9352 15.3947 10.4999 16.3619C8.47979 16.8025 6.54877 16.5452 4.71649 15.5878C4.63488 15.5451 4.56931 15.5509 4.49064 15.5759C3.04425 16.0366 1.59759 16.4963 0.150928 16.956C0.109449 16.9693 0.0677034 16.981 0 17.0015ZM2.16169 14.8866C3.03434 14.6097 3.87462 14.344 4.71382 14.0748C4.79303 14.0493 4.8519 14.0541 4.92442 14.0993C6.50916 15.0827 8.22155 15.3949 10.0533 15.0365C13.8005 14.3036 16.2759 10.524 15.4385 6.82278C14.6076 3.15053 11.0865 0.833707 7.36041 1.50757C4.31964 2.05762 1.95163 4.66912 1.72657 7.72783C1.60535 9.37264 2.01505 10.8771 2.96316 12.2334C3.0124 12.3038 3.01829 12.3596 2.99099 12.4385C2.78333 13.0409 2.58049 13.6452 2.37631 14.2486C2.30727 14.4524 2.23903 14.6565 2.16169 14.8866Z" fill="#0179CB"/>
<path d="M4.48179 6.28295C4.48419 5.52804 4.78605 4.91051 5.35497 4.41866C5.52785 4.26933 5.73203 4.20794 5.9627 4.23425C6.09088 4.24887 6.2204 4.25923 6.34939 4.26056C6.47784 4.26215 6.57497 4.31264 6.63866 4.41919C6.68362 4.49492 6.72269 4.57544 6.75373 4.65754C6.95658 5.19111 7.15594 5.72601 7.35852 6.25957C7.40561 6.3834 7.41552 6.50908 7.33497 6.61484C7.15594 6.85027 6.97451 7.0849 6.77701 7.30492C6.6103 7.49065 6.58728 7.56479 6.70878 7.78587C7.35905 8.96886 8.2986 9.84042 9.54483 10.3817C9.71904 10.4574 9.82474 10.4431 9.95239 10.302C10.1876 10.0418 10.4188 9.77824 10.6466 9.51146C10.7777 9.35787 10.863 9.32572 11.0549 9.39481C11.1384 9.42483 11.2203 9.46097 11.299 9.50216C11.7916 9.75964 12.2816 10.0227 12.7761 10.2765C12.9362 10.3586 12.9993 10.4731 12.9857 10.6503C12.9372 11.2761 12.7025 11.7807 12.1157 12.0913C11.5291 12.402 10.9273 12.5322 10.2781 12.3249C9.04575 11.9316 7.88061 11.4204 6.93597 10.5023C6.32396 9.90738 5.79572 9.24972 5.3349 8.5344C5.05312 8.09703 4.77588 7.65779 4.63245 7.15452C4.5519 6.87126 4.50774 6.5779 4.44727 6.28907C4.4585 6.28721 4.47001 6.28508 4.48179 6.28295Z" fill="#0179CB"/>
</g>
<defs>
<clipPath id="clip0_0_140">
<rect width="17" height="17" fill="white"/>
</clipPath>
</defs>
</svg>
