<svg width="32" height="32" viewBox="0 0 32 32" fill="none" xmlns="http://www.w3.org/2000/svg">
<g clip-path="url(#clip0_0_100)">
<path d="M21.9936 4C19.6742 4 17.4482 5.08 15.9953 6.78667C14.5424 5.08 12.3164 4 9.99708 4C5.89162 4 2.66589 7.22667 2.66589 11.3333C2.66589 16.3733 7.1979 20.48 14.0626 26.72L15.9953 28.4667L17.9281 26.7067C24.7927 20.48 29.3247 16.3733 29.3247 11.3333C29.3247 7.22667 26.099 4 21.9936 4ZM16.1286 24.7333L15.9953 24.8667L15.862 24.7333C9.51722 18.9867 5.33178 15.1867 5.33178 11.3333C5.33178 8.66667 7.33119 6.66667 9.99708 6.66667C12.0498 6.66667 14.0492 7.98667 14.7557 9.81333H17.2483C17.9414 7.98667 19.9408 6.66667 21.9936 6.66667C24.6594 6.66667 26.6589 8.66667 26.6589 11.3333C26.6589 15.1867 22.4734 18.9867 16.1286 24.7333Z" fill="#A9C7DB"/>
</g>
<defs>
<clipPath id="clip0_0_100">
<rect width="31.9906" height="32" fill="white"/>
</clipPath>
</defs>
</svg>
